<?xml version="1.0" encoding="UTF-8"?>
<svg width="430px" height="94px" viewBox="0 0 430 94" version="1.1" xmlns="http://www.w3.org/2000/svg" xmlns:xlink="http://www.w3.org/1999/xlink">
    <title>Hipica-Logo</title>
    <defs>
        <polygon id="path-1" points="0 94.5601852 430 94.5601852 430 0 0 0"></polygon>
    </defs>
    <g id="LP" stroke="none" stroke-width="1" fill="none" fill-rule="evenodd">
        <g id="HipicaBoulevard-LPteaser-Desk" transform="translate(-375.000000, -221.000000)">
            <g id="Hipica-Logo" transform="translate(375.000000, 220.000000)">
                <path d="M103.928828,94.5601852 L99.800016,88.6128828 L97.9216558,88.6128828 L97.9216558,94.5601852 L96.5509259,94.5601852 L96.5509259,80.625 L101.381726,80.625 C101.897028,80.625 102.382921,80.7139754 102.835569,80.8919262 C103.288217,81.0710477 103.684603,81.3145593 104.023449,81.6248024 C104.363575,81.9362163 104.630816,82.3003129 104.825173,82.7194339 C105.020809,83.1362133 105.117987,83.582261 105.117987,84.0552355 L105.117987,85.1826473 C105.117987,85.6556218 105.020809,86.1004987 104.825173,86.5184489 C104.630816,86.9363991 104.363575,87.3004958 104.023449,87.6107389 C103.684603,87.9221528 103.288217,88.1668351 102.835569,88.3447859 C102.382921,88.5239074 101.897028,88.6128828 101.381726,88.6128828 L105.509259,94.5601852 L103.928828,94.5601852 Z M103.747258,84.0552355 C103.747258,83.7449923 103.684603,83.4546516 103.556736,83.1853839 C103.42887,82.917287 103.25625,82.6807998 103.037598,82.4759223 C102.817668,82.2722155 102.561934,82.1118256 102.267841,81.9959235 C101.973748,81.8788506 101.657918,81.8191434 101.317792,81.8191434 L97.9216558,81.8191434 L97.9216558,87.4163979 L101.317792,87.4163979 C101.657918,87.4163979 101.973748,87.3602029 102.267841,87.24313 C102.561934,87.1260572 102.817668,86.9656673 103.037598,86.7619605 C103.25625,86.5570829 103.42887,86.3205957 103.556736,86.0513281 C103.684603,85.7832312 103.747258,85.4940612 103.747258,85.1826473 L103.747258,84.0552355 Z" id="Fill-1" fill="#FEFEFE"></path>
                <polygon id="Fill-3" fill="#FEFEFE" points="121.435185 94.5601852 121.435185 80.625 130.393519 80.625 130.393519 81.8191434 122.867395 81.8191434 122.867395 86.9996184 128.961308 86.9996184 128.961308 88.1949326 122.867395 88.1949326 122.867395 93.3648711 130.393519 93.3648711 130.393519 94.5601852"></polygon>
                <path d="M154.282407,91.2321418 C154.282407,91.6922819 154.176693,92.1239481 153.962653,92.5271402 C153.749919,92.9303323 153.464098,93.2834101 153.107801,93.5852348 C152.748893,93.8881983 152.335171,94.1262411 151.861413,94.2993632 C151.387655,94.4736242 150.887794,94.5601852 150.360526,94.5601852 L149.245955,94.5601852 C148.717382,94.5601852 148.218827,94.4736242 147.743764,94.2993632 C147.271311,94.1262411 146.856283,93.8881983 146.498681,93.5852348 C146.141078,93.2834101 145.856562,92.9303323 145.642523,92.5271402 C145.429789,92.1239481 145.324074,91.6922819 145.324074,91.2321418 L145.324074,90.6934133 L146.720551,90.4952341 L146.720551,91.2321418 C146.720551,91.5351053 146.791027,91.8175676 146.93198,92.0783896 C147.072933,92.3403506 147.262175,92.5704207 147.501012,92.7685999 C147.738543,92.966779 148.015228,93.1228167 148.328457,93.2367128 C148.644296,93.3494699 148.97449,93.4064179 149.320347,93.4064179 L150.29527,93.4064179 C150.642432,93.4064179 150.971322,93.3494699 151.28194,93.2367128 C151.591253,93.1228167 151.866633,92.966779 152.10547,92.7685999 C152.344306,92.5704207 152.532244,92.3403506 152.674501,92.0783896 C152.814149,91.8175676 152.885931,91.5351053 152.885931,91.2321418 L152.885931,90.8255328 C152.885931,90.3585589 152.781521,89.9724511 152.570092,89.6626538 C152.361273,89.3539954 152.083283,89.0908955 151.737426,88.873354 C151.390265,88.6558125 150.997424,88.4713008 150.560209,88.3198191 C150.1243,88.1694762 149.675339,88.0179944 149.212022,87.8665127 C148.751315,87.7150309 148.301049,87.5487426 147.863835,87.3653699 C147.42662,87.1819972 147.035084,86.9542051 146.689228,86.6797155 C146.342066,86.4063649 146.064076,86.0703715 145.853952,85.6728742 C145.645133,85.2765158 145.540724,84.7879017 145.540724,84.2070317 L145.540724,83.9519044 C145.540724,83.4917643 145.639913,83.0600982 145.836986,82.656906 C146.036669,82.2537139 146.309439,81.9006361 146.655295,81.5976725 C147.002456,81.2947089 147.408348,81.0578051 147.874276,80.8846831 C148.340203,80.711561 148.837453,80.625 149.363416,80.625 L150.360526,80.625 C150.887794,80.625 151.382434,80.711561 151.845751,80.8846831 C152.306458,81.0578051 152.71235,81.2947089 153.059511,81.5976725 C153.405368,81.9006361 153.678138,82.2537139 153.87521,82.656906 C154.074894,83.0600982 154.174083,83.4917643 154.174083,83.9519044 L154.174083,84.3027044 L152.777606,84.5008835 L152.777606,83.9519044 C152.777606,83.6500798 152.71235,83.3676176 152.581838,83.1056566 C152.452631,82.8448346 152.275135,82.6170424 152.050655,82.4211412 C151.82748,82.2252399 151.565151,82.0714802 151.264973,81.9575841 C150.966101,81.844827 150.642432,81.78674 150.29527,81.78674 L149.428672,81.78674 C149.082815,81.78674 148.760451,81.844827 148.458969,81.9575841 C148.160097,82.0714802 147.895158,82.2252399 147.669372,82.4211412 C147.440976,82.6170424 147.262175,82.8448346 147.131663,83.1056566 C147.002456,83.3676176 146.937201,83.6500798 146.937201,83.9519044 L146.937201,84.2070317 C146.937201,84.6432536 147.04161,85.0077211 147.251734,85.3038509 C147.460553,85.6011197 147.738543,85.853969 148.085705,86.0658157 C148.432866,86.2765234 148.824402,86.4598961 149.260311,86.6136558 C149.697526,86.7685545 150.147792,86.9257311 150.611109,87.0863245 C151.071816,87.246918 151.522082,87.4234569 151.959296,87.6159413 C152.396511,87.8084257 152.786742,88.0441905 153.133903,88.3243749 C153.481065,88.6045592 153.759055,88.9473864 153.969179,89.3505786 C154.177998,89.7537707 154.282407,90.2458017 154.282407,90.8255328 L154.282407,91.2321418 Z" id="Fill-5" fill="#FEFEFE"></path>
                <mask id="mask-2" fill="white">
                    <use xlink:href="#path-1"></use>
                </mask>
                <g id="Clip-8"></g>
                <polygon id="Fill-7" fill="#FEFEFE" mask="url(#mask-2)" points="170.208333 94.5601852 171.203704 94.5601852 171.203704 80.625 170.208333 80.625"></polygon>
                <path d="M196.777146,92.4704342 C196.573912,92.8848722 196.294465,93.2477982 195.938806,93.559212 C195.583147,93.8694552 195.16732,94.1141375 194.689988,94.293259 C194.212655,94.4712098 193.704571,94.5601852 193.164397,94.5601852 L188.125,94.5601852 L188.125,80.625 L193.164397,80.625 C193.704571,80.625 194.212655,80.7139754 194.689988,80.8919262 C195.16732,81.0710477 195.583147,81.3145593 195.938806,81.6248024 C196.294465,81.9362163 196.573912,82.3003129 196.777146,82.7194339 C196.980379,83.1362133 197.083333,83.582261 197.083333,84.0564062 L197.083333,91.1393156 C197.083333,91.6134607 196.980379,92.0559962 196.777146,92.4704342 L196.777146,92.4704342 Z M195.65,84.0564062 C195.65,83.7449923 195.583147,83.4546516 195.450777,83.1853839 C195.317071,82.917287 195.133893,82.6807998 194.901244,82.4759223 C194.668595,82.2722155 194.398507,82.1118256 194.090983,81.9959235 C193.784795,81.8788506 193.453203,81.8191434 193.097544,81.8191434 L189.558333,81.8191434 L189.558333,93.3648711 L193.097544,93.3648711 C193.453203,93.3648711 193.784795,93.3075053 194.090983,93.1904325 C194.398507,93.0745303 194.668595,92.9153112 194.901244,92.7139458 C195.133893,92.5125805 195.317071,92.2784347 195.450777,92.0091671 C195.583147,91.7410702 195.65,91.4507294 195.65,91.1393156 L195.65,84.0564062 Z" id="Fill-9" fill="#FEFEFE" mask="url(#mask-2)"></path>
                <polygon id="Fill-10" fill="#FEFEFE" mask="url(#mask-2)" points="213.009259 94.5601852 213.009259 80.625 221.967593 80.625 221.967593 81.8191434 214.440346 81.8191434 214.440346 86.9996184 220.536506 86.9996184 220.536506 88.1949326 214.440346 88.1949326 214.440346 93.3648711 221.967593 93.3648711 221.967593 94.5601852"></polygon>
                <polygon id="Fill-11" fill="#FEFEFE" mask="url(#mask-2)" points="243.111524 94.5601852 236.473344 84.4146492 236.340955 83.8117239 236.340955 94.5601852 234.907407 94.5601852 234.907407 80.625 235.652264 80.625 242.290443 90.7799018 242.433531 91.3722906 242.433531 80.625 243.865741 80.625 243.865741 94.5601852"></polygon>
                <path d="M268.443812,92.5271402 C268.240578,92.9303323 267.961132,93.2834101 267.605473,93.5863737 C267.249813,93.8881983 266.83666,94.1262411 266.362002,94.3005021 C265.890019,94.4736242 265.381934,94.5601852 264.843097,94.5601852 L263.710603,94.5601852 C263.170429,94.5601852 262.662345,94.4736242 262.183675,94.3005021 C261.70768,94.1262411 261.290516,93.8881983 260.936194,93.5863737 C260.580535,93.2834101 260.301088,92.9303323 260.097854,92.5271402 C259.893284,92.1239481 259.791667,91.6934209 259.791667,91.2321418 L259.791667,83.9530434 C259.791667,83.4917643 259.893284,83.0600982 260.097854,82.656906 C260.301088,82.2537139 260.580535,81.9006361 260.936194,81.5976725 C261.290516,81.2958479 261.70768,81.0589441 262.183675,80.8846831 C262.662345,80.711561 263.170429,80.625 263.710603,80.625 L264.843097,80.625 C265.381934,80.625 265.890019,80.711561 266.362002,80.8846831 C266.83666,81.0589441 267.249813,81.2958479 267.605473,81.5976725 C267.961132,81.9006361 268.240578,82.2537139 268.443812,82.656906 C268.647046,83.0600982 268.75,83.4917643 268.75,83.9530434 L268.75,84.5008835 L267.316667,84.689951 L267.316667,83.9530434 C267.316667,83.6500798 267.249813,83.3676176 267.117444,83.1067955 C266.983738,82.8448346 266.801897,82.6170424 266.574596,82.4211412 C266.344621,82.2252399 266.075871,82.0714802 265.769683,81.9587231 C265.462158,81.844827 265.130566,81.78674 264.776244,81.78674 L263.777456,81.78674 C263.421797,81.78674 263.090205,81.844827 262.784017,81.9587231 C262.476493,82.0714802 262.206405,82.2252399 261.973756,82.4211412 C261.73977,82.6170424 261.557929,82.8448346 261.424223,83.1067955 C261.290516,83.3676176 261.225,83.6500798 261.225,83.9530434 L261.225,91.2321418 C261.225,91.5351053 261.290516,91.8175676 261.424223,92.0783896 C261.557929,92.3403506 261.73977,92.5704207 261.973756,92.7685999 C262.206405,92.967918 262.476493,93.1228167 262.784017,93.2367128 C263.090205,93.3506088 263.421797,93.4064179 263.777456,93.4064179 L264.776244,93.4064179 C265.130566,93.4064179 265.462158,93.3506088 265.769683,93.2367128 C266.075871,93.1228167 266.344621,92.967918 266.574596,92.7685999 C266.801897,92.5704207 266.983738,92.3403506 267.117444,92.0783896 C267.249813,91.8175676 267.316667,91.5351053 267.316667,91.2321418 L267.316667,90.4952341 L268.75,90.6945523 L268.75,91.2321418 C268.75,91.6934209 268.647046,92.1239481 268.443812,92.5271402" id="Fill-12" fill="#FEFEFE" mask="url(#mask-2)"></path>
                <polygon id="Fill-13" fill="#FEFEFE" mask="url(#mask-2)" points="284.675926 94.5601852 285.671296 94.5601852 285.671296 80.625 284.675926 80.625"></polygon>
                <path d="M308.0612,91.3149249 L303.09489,91.3149249 L302.067105,94.5601852 L300.601852,94.5601852 L305.195261,80.625 L305.939746,80.625 L310.555556,94.5601852 L309.100844,94.5601852 L308.0612,91.3149249 Z M303.478333,90.1196108 L307.689616,90.1196108 L305.622187,83.6958217 L305.578704,83.180701 L305.53522,83.6958217 L303.478333,90.1196108 Z" id="Fill-14" fill="#FEFEFE" mask="url(#mask-2)"></path>
                <polygon id="Fill-15" fill="#FEFEFE" mask="url(#mask-2)" points="325.486111 94.5601852 325.486111 80.625 327.000036 80.625 327.000036 93.3648711 333.449074 93.3648711 333.449074 94.5601852"></polygon>
                <path d="M41.2978032,42.8525377 C41.4716232,42.8914678 41.6025677,42.96107 41.6894777,43.0589849 C41.7752289,43.1580796 41.8134693,43.2607133 41.8041989,43.3680658 C41.7960873,43.4765981 41.7416237,43.574513 41.6466021,43.6629904 C41.5492629,43.7526475 41.4044128,43.7962963 41.212052,43.7962963 L22.7280297,43.7962963 C22.5356689,43.7962963 22.3908188,43.7526475 22.2934796,43.6629904 C22.1972992,43.574513 22.1439944,43.4765981 22.134724,43.3680658 C22.1242948,43.2607133 22.163694,43.1580796 22.250604,43.0589849 C22.337514,42.96107 22.4672997,42.8914678 22.6411197,42.8525377 C22.8728797,42.8136077 23.2390606,42.7298491 23.7419799,42.601262 C24.2437404,42.4738546 24.7512949,42.2426337 25.2623258,41.9087791 C25.7745155,41.5749246 26.22413,41.1219204 26.6100104,40.5521262 C26.9958909,39.9811523 27.1894105,39.235583 27.1894105,38.3095199 L27.1894105,24.2722908 L14.6164282,24.2722908 L14.6164282,38.3095199 C14.6164282,39.235583 14.8099478,39.9811523 15.1958283,40.5521262 C15.5828676,41.1219204 16.0301644,41.5749246 16.5435129,41.9087791 C17.0545438,42.2426337 17.5620983,42.4738546 18.0638588,42.601262 C18.5656193,42.7298491 18.932959,42.8136077 19.164719,42.8525377 C19.3396979,42.8914678 19.4683247,42.96107 19.5563935,43.0589849 C19.6433035,43.1580796 19.6815439,43.2607133 19.6722735,43.3680658 C19.6618443,43.4765981 19.6085395,43.574513 19.5123591,43.6629904 C19.4161787,43.7526475 19.2713287,43.7962963 19.077809,43.7962963 L0.59494552,43.7962963 C0.402584684,43.7962963 0.257734657,43.7526475 0.160395438,43.6629904 C0.0630562198,43.574513 0.0109102099,43.4765981 0.00163980818,43.3680658 C-0.0087893938,43.2607133 0.0306098137,43.1580796 0.11751983,43.0589849 C0.203271046,42.96107 0.334215471,42.8914678 0.509194304,42.8525377 C0.739795548,42.8136077 1.10597642,42.7298491 1.60889571,42.601262 C2.11181501,42.4738546 2.6182107,42.2426337 3.1292416,41.9087791 C3.6414313,41.5749246 4.09104578,41.1219204 4.47692625,40.5521262 C4.86396553,39.9811523 5.05632636,39.235583 5.05632636,38.3095199 L5.05632636,9.46707819 C5.05632636,8.56342936 4.86396553,7.82021948 4.47692625,7.24098765 C4.09104578,6.66057613 3.6414313,6.20875171 3.1292416,5.88315501 C2.6182107,5.5599177 2.11181501,5.32751715 1.60889571,5.19067215 C1.10597642,5.05264746 0.739795548,4.96534979 0.509194304,4.92524005 C0.334215471,4.90518519 0.203271046,4.84148148 0.11751983,4.73294925 C0.0306098137,4.62559671 -0.0087893938,4.51706447 0.00163980818,4.40853224 C0.0109102099,4.3011797 0.0630562198,4.20208505 0.160395438,4.11360768 C0.257734657,4.02513032 0.402584684,3.98148148 0.59494552,3.98148148 L19.077809,3.98148148 C19.2713287,3.98148148 19.4161787,4.02513032 19.5123591,4.11360768 C19.6085395,4.20208505 19.6618443,4.3011797 19.6722735,4.40853224 C19.6815439,4.51706447 19.6433035,4.62559671 19.5563935,4.73294925 C19.4683247,4.84148148 19.3396979,4.90518519 19.164719,4.92524005 C18.932959,4.96534979 18.5656193,5.05264746 18.0638588,5.19067215 C17.5620983,5.32751715 17.0545438,5.5599177 16.5435129,5.88315501 C16.0301644,6.20875171 15.5828676,6.66057613 15.1958283,7.24098765 C14.8099478,7.82021948 14.6164282,8.56342936 14.6164282,9.46707819 L14.6164282,22.3552812 L27.1894105,22.3552812 L27.1894105,9.46707819 C27.1894105,8.56342936 26.9958909,7.82021948 26.6100104,7.24098765 C26.22413,6.66057613 25.7745155,6.20875171 25.2623258,5.88315501 C24.7512949,5.5599177 24.2437404,5.32751715 23.7419799,5.19067215 C23.2390606,5.05264746 22.8728797,4.96534979 22.6411197,4.92524005 C22.4672997,4.90518519 22.337514,4.84148148 22.250604,4.73294925 C22.163694,4.62559671 22.1242948,4.51706447 22.134724,4.40853224 C22.1439944,4.3011797 22.1972992,4.20208505 22.2934796,4.11360768 C22.3908188,4.02513032 22.5356689,3.98148148 22.7280297,3.98148148 L41.212052,3.98148148 C41.4044128,3.98148148 41.5492629,4.02513032 41.6466021,4.11360768 C41.7416237,4.20208505 41.7960873,4.3011797 41.8041989,4.40853224 C41.8134693,4.51706447 41.7752289,4.62559671 41.6894777,4.73294925 C41.6025677,4.84148148 41.4716232,4.90518519 41.2978032,4.92524005 C41.067202,4.96534979 40.6987035,5.05264746 40.1981018,5.19067215 C39.6951825,5.32751715 39.1887868,5.5599177 38.6765971,5.88315501 C38.1644074,6.20875171 37.7147929,6.66057613 37.3289125,7.24098765 C36.943032,7.82021948 36.7495124,8.56342936 36.7495124,9.46707819 L36.7495124,38.3095199 C36.7495124,39.235583 36.943032,39.9811523 37.3289125,40.5521262 C37.7147929,41.1219204 38.1644074,41.5749246 38.6765971,41.9087791 C39.1887868,42.2426337 39.6951825,42.4738546 40.1981018,42.601262 C40.6987035,42.7298491 41.067202,42.8136077 41.2978032,42.8525377" id="Fill-16" fill="#FEFEFE" mask="url(#mask-2)"></path>
                <path d="M55.0043985,39.25255 C55.0043985,40.0246974 55.153022,40.6463514 55.4480509,41.1186695 C55.7441888,41.5921452 56.0813646,41.9579602 56.4595783,42.2195874 C56.8389011,42.4788993 57.2093508,42.6629644 57.5698184,42.7683099 C57.930286,42.874813 58.184277,42.9384833 58.3317914,42.9570056 C58.4804149,42.9952078 58.5857824,43.0577205 58.6512211,43.1445436 C58.7155507,43.2325245 58.7388425,43.3239782 58.7210964,43.4200625 C58.7022411,43.5173045 58.6512211,43.6041277 58.5680363,43.6805321 C58.4848515,43.7580941 58.3683927,43.7962963 58.2208783,43.7962963 L44.3023937,43.7962963 C44.1537702,43.7962963 44.0384205,43.7580941 43.9552357,43.6805321 C43.8720509,43.6041277 43.8210309,43.5173045 43.8021756,43.4200625 C43.7844295,43.3239782 43.8066122,43.2325245 43.8720509,43.1445436 C43.9363805,43.0577205 44.0428571,42.9952078 44.1903715,42.9570056 C44.338995,42.9384833 44.592986,42.874813 44.9523445,42.7683099 C45.3139212,42.6629644 45.6832618,42.4788993 46.0614754,42.2195874 C46.4407982,41.9579602 46.7790832,41.5921452 47.0752211,41.1186695 C47.37025,40.6463514 47.5177644,40.0246974 47.5177644,39.25255 L47.5177644,23.161321 C47.5177644,22.9112702 47.4068513,22.7561461 47.1850251,22.698264 C47.1484238,22.698264 47.0142189,22.669323 46.7835197,22.6114409 C46.5517113,22.5535587 46.2888473,22.4864155 45.9927093,22.4088534 C45.6965713,22.332449 45.4248343,22.2641481 45.1752798,22.2051084 C44.9257253,22.1483839 44.7726652,22.1090241 44.7183178,22.0905018 C44.4776364,22.0326197 44.3523046,21.9029637 44.3434316,21.6992187 C44.3334494,21.4966312 44.4676542,21.3577142 44.744937,21.2801521 C45.4658721,21.1065058 46.2467003,20.8703467 47.0885307,20.5705173 C47.929252,20.2718456 48.7755189,19.9349717 49.6251133,19.5575803 C50.4758167,19.1813465 51.2976828,18.7773293 52.0929297,18.3432134 C52.8881766,17.9090975 53.5991295,17.4703511 54.2291159,17.0258164 C54.3943764,16.9100522 54.5651826,16.8614312 54.7415344,16.8811111 C54.9167771,16.8996334 55.0043985,17.0443387 55.0043985,17.315227 L55.0043985,39.25255 Z M47.6985528,15.5787634 C47.7994837,15.69337 47.9525437,15.7037888 48.1555147,15.6077045 C48.8953051,15.2592541 49.7460085,14.8124042 50.706516,14.2613664 C51.6681325,13.7126439 52.6153304,13.103724 53.5492186,12.4380797 C54.4819978,11.7735929 55.3426834,11.0778499 56.1279481,10.3543234 C56.9132129,9.63079691 57.5187984,8.93273856 57.9435955,8.25667542 C58.1277113,7.9475849 58.2807714,7.58987341 58.4016666,7.18585622 C58.5214528,6.78068139 58.5769093,6.38939827 58.5680363,6.01316449 C58.5580541,5.63693072 58.4704328,5.28500744 58.3051722,4.95739465 C58.1376935,4.62978186 57.8504285,4.37857346 57.4444866,4.20492711 C57.075146,4.03128075 56.7246606,3.95950692 56.3908122,3.98729034 C56.0580729,4.01738904 55.7397523,4.10884279 55.4347413,4.26165158 C55.1297303,4.41677566 54.8469019,4.62399365 54.5884744,4.88562082 C54.3300468,5.14493271 54.0904745,5.41929396 53.8686484,5.70870455 C53.8298288,5.74922203 53.6745504,5.98538108 53.3972677,6.41949697 C53.1199849,6.85361286 52.772827,7.38844364 52.3569028,8.0239893 C51.9409787,8.66185025 51.4873442,9.35643567 50.9982174,10.1089032 C50.5079815,10.8613708 50.0410374,11.5802667 49.597385,12.265591 C49.1548417,12.9497576 48.7611002,13.5528893 48.4194879,14.0738283 C48.0767664,14.5947674 47.8516128,14.9420601 47.7395906,15.1145488 C47.6109314,15.3078751 47.5965127,15.4629992 47.6985528,15.5787634 L47.6985528,15.5787634 Z" id="Fill-17" fill="#FEFEFE" mask="url(#mask-2)"></path>
                <path d="M84.4861481,17.2129647 C86.0006701,17.2129647 87.3244577,17.4141735 88.4597816,17.816591 C89.5951054,18.2190085 90.5748899,18.7651465 91.3979997,19.455005 C92.2199741,20.1448636 92.9023037,20.9301526 93.4415826,21.8120218 C93.9808614,22.6938909 94.4066078,23.6229005 94.7188219,24.6002001 C95.0310359,25.5774997 95.2478828,26.5547993 95.3716331,27.5320989 C95.4942481,28.5093986 95.5555556,29.42921 95.5555556,30.2915332 C95.5555556,32.457689 95.2955664,34.4122883 94.7755881,36.1553309 C94.2544744,37.8995233 93.4699657,39.3942168 92.4197911,40.6394115 C91.3684812,41.8857559 90.0492349,42.8435096 88.4597816,43.5138221 C86.8714635,44.1841347 85.0163444,44.5198659 82.8978301,44.5198659 C81.7057401,44.5198659 80.6737307,44.4474307 79.8029373,44.3037102 C78.9321439,44.1599897 78.2146193,43.9978729 77.6469573,43.8162101 C77.0792954,43.6333976 76.6478724,43.4666818 76.3549588,43.3126134 C76.0609099,43.158545 75.9042352,43.0631145 75.8872054,43.0251723 C75.7918382,42.9492879 75.7021476,42.9297419 75.6169983,42.9676841 C75.531849,43.0067761 75.4887067,43.0734624 75.4887067,43.1688929 L75.4887067,52.0795659 C75.4887067,52.8648549 75.654464,53.498375 75.9859786,53.9766769 C76.3174931,54.4561286 76.695556,54.834401 77.1213024,55.112644 C77.5470488,55.3897372 77.9625774,55.5863469 78.3701586,55.7013233 C78.7766046,55.8162997 79.0558942,55.882986 79.2080276,55.902532 C79.3578904,55.941624 79.4668814,56.0025615 79.5338656,56.0899436 C79.5997143,56.1761759 79.6235561,56.2670073 79.6042556,56.3624377 C79.5860904,56.4578682 79.5338656,56.5441005 79.4487163,56.6211347 C79.363567,56.6981689 79.2454933,56.7361111 79.0933599,56.7361111 L64.2206176,56.7361111 C64.0696196,56.7361111 63.9515459,56.6981689 63.8663966,56.6211347 C63.7812473,56.5441005 63.7290224,56.4578682 63.7097219,56.3624377 C63.6915567,56.2670073 63.7142632,56.1761759 63.7812473,56.0899436 C63.8470961,56.0025615 63.9560872,55.941624 64.1082206,55.902532 C64.2592186,55.882986 64.5385083,55.8162997 64.9449542,55.7013233 C65.3514002,55.5863469 65.768064,55.3897372 66.1938105,55.112644 C66.6195569,54.834401 66.9976197,54.4561286 67.3291343,53.9766769 C67.6606489,53.498375 67.8252708,52.8648549 67.8252708,52.0795659 L67.8252708,23.1629948 C67.8252708,22.9146457 67.7128738,22.7605773 67.4846737,22.7030891 C67.447208,22.7030891 67.3098338,22.674345 67.0736864,22.6168567 C66.8364037,22.5593685 66.567332,22.4926822 66.2642005,22.415648 C65.9622044,22.3397636 65.6829147,22.2719275 65.4274669,22.2144393 C65.172019,22.156951 65.0164796,22.1190088 64.9597134,22.0994628 C64.7133482,22.0419746 64.5850566,21.913201 64.575974,21.7108425 C64.5657561,21.5096338 64.7031303,21.3716621 64.9869612,21.2946278 C65.726057,21.1221632 66.525325,20.8876113 67.3847652,20.5909721 C68.246476,20.2943329 69.112728,19.9586018 69.9835214,19.5849284 C70.8531795,19.2101052 71.6944545,18.8088375 72.5084816,18.3776759 C73.3225088,17.9465143 74.0513867,17.5107537 74.69398,17.0692442 C74.8642786,16.9542678 75.0402538,16.9059777 75.219635,16.9255237 C75.3990161,16.9450697 75.4887067,17.0887902 75.4887067,17.3566853 L75.4887067,21.064675 C75.4887067,21.1991974 75.5363903,21.2854297 75.6306222,21.323372 C75.7248541,21.3613142 75.8100034,21.3337198 75.8872054,21.2371396 C76.0563686,21.025583 76.3401996,20.6956007 76.7386983,20.2460428 C77.1349263,19.7953353 77.6787464,19.3446277 78.3701586,18.8950698 C79.0604355,18.4443622 79.9119284,18.0511429 80.9246373,17.7154117 C81.9362108,17.3808303 83.1248949,17.2129647 84.4861481,17.2129647 M87.3244577,31.6425062 C87.3244577,31.2021465 87.3199164,30.6272643 87.3108338,29.9178598 C87.3006159,29.209605 87.2449851,28.4427122 87.1405353,27.6183313 C87.0360855,26.7951001 86.8714635,25.9603712 86.6432634,25.117594 C86.4161987,24.2748168 86.0846841,23.5171222 85.6498551,22.8468096 C85.215026,22.1753473 84.6564467,21.62576 83.9763877,21.1945984 C83.2940581,20.7634368 82.4527831,20.5472811 81.4491569,20.5472811 C80.1616996,20.5472811 79.1308256,20.786432 78.3565347,21.2658837 C77.5799732,21.7441857 76.9839282,22.3294157 76.5672644,23.0192742 C76.1506005,23.7091328 75.8769875,24.4415326 75.7452899,25.2187733 C75.612457,25.9948641 75.5454729,26.6789739 75.5454729,27.273402 L75.5454729,35.0343107 C75.5454729,35.7632613 75.6260809,36.5772944 75.7872969,37.4775598 C75.9473775,38.3778252 76.2357498,39.2309503 76.653549,40.0357853 C77.0690775,40.8406202 77.6367394,41.5166816 78.3565347,42.0616699 C79.0740594,42.6089577 79.9925364,42.8814518 81.1085597,42.8814518 C82.2257184,42.8814518 83.1759844,42.5940107 83.9616285,42.0191286 C84.7461373,41.4442465 85.3898659,40.6543584 85.891679,39.6483147 C86.3934922,38.642271 86.7567958,37.4534147 86.9838606,36.0828957 C87.2109253,34.7135265 87.3244577,33.2337799 87.3244577,31.6425062" id="Fill-18" fill="#FEFEFE" mask="url(#mask-2)"></path>
                <path d="M107.759879,39.2666398 C107.759879,40.0363929 107.907399,40.6561192 108.203548,41.1269726 C108.498587,41.5989801 108.836884,41.9636608 109.215112,42.2244767 C109.594448,42.4829844 109.963802,42.6664788 110.325392,42.7714976 C110.684763,42.8776704 110.938763,42.9411433 111.087392,42.9596082 C111.234912,42.9976919 111.341392,43.0600107 111.405724,43.1465647 C111.471165,43.2342727 111.493349,43.3254428 111.475602,43.4212292 C111.456746,43.5181696 111.405724,43.6047236 111.323646,43.680891 C111.239349,43.7582126 111.123995,43.7962963 110.976475,43.7962963 L97.0563795,43.7962963 C96.9088598,43.7962963 96.7923968,43.7582126 96.709209,43.680891 C96.6271303,43.6047236 96.5749993,43.5181696 96.5572526,43.4212292 C96.5383967,43.3254428 96.5616893,43.2342727 96.6271303,43.1465647 C96.6914623,43.0600107 96.7968335,42.9976919 96.9454624,42.9596082 C97.0929821,42.9411433 97.3469823,42.8776704 97.7074629,42.7714976 C98.0679434,42.6664788 98.4384065,42.4829844 98.8166338,42.2244767 C99.1959703,41.9636608 99.5331583,41.5989801 99.8293069,41.1269726 C100.124346,40.6561192 100.272975,40.0363929 100.272975,39.2666398 L100.272975,23.2253086 C100.272975,22.9760333 100.162058,22.8213902 99.9391148,22.7636876 C99.9025122,22.7636876 99.7683025,22.7348363 99.5387041,22.6771337 C99.3068874,22.619431 99.0429047,22.552496 98.7478652,22.4751744 C98.4506074,22.399007 98.1788605,22.3309179 97.929297,22.2720612 C97.6797336,22.2155126 97.5277772,22.1762748 97.4723186,22.15781 C97.2316285,22.1001074 97.1074014,21.9708535 97.0974188,21.7677402 C97.0885455,21.565781 97.2227552,21.4272947 97.5000479,21.3499732 C98.221009,21.1768653 99.0018654,20.9414385 99.8426169,20.6425389 C100.684478,20.3447933 101.529666,20.008964 102.3804,19.6327429 C103.230025,19.2576758 104.05303,18.8549114 104.848305,18.4221417 C105.643581,17.989372 106.35345,17.551986 106.98346,17.1088298 C107.148726,16.9934246 107.320648,16.9449544 107.495897,16.9645733 C107.671146,16.9830381 107.759879,17.1272947 107.759879,17.397343 L107.759879,39.2666398 Z M107.980604,6.78005904 C107.759879,6.22149758 107.450421,5.73679549 107.052228,5.32249061 C106.655145,4.90933977 106.182638,4.58274289 105.639144,4.34154589 C105.093432,4.10150295 104.487825,3.98148148 103.821213,3.98148148 C103.174566,3.98148148 102.564522,4.10611916 101.99219,4.35654858 C101.418749,4.60697799 100.925168,4.94396135 100.509229,5.36634461 C100.09329,5.78872786 99.7638658,6.28497048 99.5231757,6.85161031 C99.2824856,7.41940419 99.1638043,8.02066559 99.1638043,8.65539452 C99.1638043,9.2889694 99.2747214,9.88676865 99.4965556,10.443022 C99.7183898,11.0027375 100.027848,11.4828234 100.424932,11.8855878 C100.823124,12.2906602 101.293413,12.6126409 101.839125,12.8526838 C102.384837,13.0938808 102.980462,13.2139023 103.628217,13.2139023 C104.29372,13.2139023 104.908201,13.0881106 105.47166,12.8388352 C106.035118,12.5895598 106.529809,12.2571927 106.95573,11.8428878 C107.380543,11.429737 107.713294,10.9392646 107.953984,10.3714707 C108.193565,9.80483092 108.314465,9.20356951 108.314465,8.56768653 C108.314465,7.93411165 108.203548,7.33746645 107.980604,6.78005904 L107.980604,6.78005904 Z" id="Fill-19" fill="#FEFEFE" mask="url(#mask-2)"></path>
                <path d="M126.667651,18.5348441 C125.900716,18.5348441 125.197021,18.8035731 124.555417,19.3410312 C123.912663,19.8796628 123.361895,20.6377368 122.903114,21.6152534 C122.442033,22.5939435 122.087885,23.7721267 121.838373,25.1509766 C121.58886,26.528653 121.465828,28.0494951 121.465828,29.7123294 C121.465828,31.3951131 121.669348,32.8948324 122.083286,34.2150078 C122.493775,35.5351832 123.06409,36.654692 123.793081,37.5747076 C124.522072,38.4947232 125.374095,39.1976433 126.352598,39.6869883 C127.328803,40.1751598 128.382045,40.4204191 129.514626,40.4204191 C130.605813,40.4204191 131.607314,40.2549571 132.516828,39.9216862 C133.427492,39.5884152 134.232372,39.2175926 134.931467,38.8068713 C135.631713,38.3961501 136.206627,38.0053782 136.657359,37.6333821 C137.106942,37.2625595 137.419696,37.0372495 137.59102,36.9586257 C137.85893,36.8412768 138.075098,36.8659201 138.238373,37.0325556 C138.400499,37.1980175 138.3959,37.4479708 138.223426,37.7800682 C138.108443,37.9959903 137.916421,38.3175263 137.648511,38.7481969 C137.379452,39.1788674 137.020705,39.6529571 136.569972,40.1704659 C136.12039,40.6891481 135.578821,41.2230858 134.946415,41.7699318 C134.31286,42.3179513 133.581569,42.8155107 132.747943,43.2661306 C131.913168,43.7167505 130.973758,44.0828791 129.929714,44.3668635 C128.88567,44.6496745 127.722044,44.7916667 126.437686,44.7916667 C124.443884,44.7916667 122.653601,44.4982943 121.062239,43.9115497 C119.470876,43.3248051 118.110629,42.4646374 116.980348,41.3298733 C115.848917,40.1962827 114.981947,38.8021774 114.378287,37.148731 C113.775777,35.4964581 113.472222,33.6141813 113.472222,31.5019006 C113.472222,29.6442671 113.704488,27.9919942 114.163269,26.5439084 C114.62205,25.0969961 115.231459,23.8354951 115.988046,22.7594055 C116.744633,21.6844893 117.612754,20.7738616 118.591258,20.0310429 C119.567462,19.2882242 120.568962,18.6862242 121.593459,18.2262164 C122.619106,17.7673821 123.629805,17.4352846 124.627856,17.229924 C125.622458,17.0245634 126.523923,16.9212963 127.328803,16.9212963 C128.631558,16.9212963 129.829679,17.0433392 130.922016,17.2885984 C132.013203,17.5326842 132.952613,17.8753431 133.737945,18.3154016 C134.524428,18.7542865 135.137286,19.2729688 135.578821,19.8702749 C136.020355,20.4664074 136.239972,21.1059591 136.239972,21.7912768 C136.239972,22.3979708 136.138787,22.9060916 135.938717,23.3168129 C135.737497,23.7275341 135.478785,24.065499 135.162583,24.3283606 C134.84523,24.5923957 134.491083,24.7836745 134.097842,24.9010234 C133.7046,25.0183723 133.30676,25.0770468 132.90547,25.0770468 C132.330556,25.0770468 131.788987,24.9690858 131.281912,24.7543372 C130.773688,24.5395887 130.356301,24.178154 130.030899,23.6688596 C129.781386,23.298037 129.580166,22.8180799 129.426089,22.2313353 C129.274312,21.6445906 129.096089,21.0777953 128.894869,20.5297758 C128.694799,19.9817563 128.430338,19.5135341 128.104937,19.1215887 C127.778386,18.7308168 127.300057,18.5348441 126.667651,18.5348441" id="Fill-20" fill="#FEFEFE" mask="url(#mask-2)"></path>
                <path d="M165.455331,41.3592105 C165.730167,41.3005361 165.945102,41.3545166 166.102486,41.521152 C166.258696,41.686614 166.266918,41.90723 166.131849,42.180653 C166.014398,42.396575 165.821778,42.6500487 165.558688,42.9434211 C165.294424,43.2367934 164.942071,43.5102164 164.501629,43.7648635 C164.061188,44.0195107 163.522088,44.2342593 162.885504,44.4102827 C162.250094,44.586306 161.501932,44.6743177 160.639841,44.6743177 C159.446539,44.6743177 158.442334,44.4337524 157.630747,43.9549688 C156.817987,43.4761852 156.255396,42.9234717 155.941802,42.2980019 C155.864285,42.1419279 155.751532,42.072692 155.604718,42.0926413 C155.457904,42.1125906 155.335755,42.1700916 155.238271,42.2674912 C155.178371,42.3273392 154.997496,42.4881072 154.694473,42.7521423 C154.391449,43.0161774 153.960404,43.3001618 153.402512,43.602922 C152.845795,43.9068558 152.1728,44.1791053 151.390577,44.4243645 C150.608353,44.6684503 149.707504,44.7916667 148.690379,44.7916667 C146.947407,44.7916667 145.483967,44.5464074 144.300061,44.0582359 C143.114981,43.5700643 142.156581,42.9387271 141.422513,42.1653977 C140.688444,41.3932417 140.159915,40.5225127 139.836924,39.554384 C139.513934,38.5874288 139.351852,37.6228207 139.351852,36.6652534 C139.351852,35.1209415 139.787595,33.7702554 140.660256,32.6167154 C141.529393,31.4620019 142.660446,30.6018343 144.049891,30.035039 C144.793356,29.7416667 145.572056,29.5316121 146.385991,29.4037018 C147.197577,29.2769649 148.00564,29.1455341 148.80783,29.0082359 C149.61002,28.8709376 150.398116,28.6996082 151.170944,28.4942476 C151.943771,28.2888869 152.673142,27.9520955 153.359055,27.4826998 C154.081379,26.9945283 154.586418,26.367885 154.870649,25.605117 C155.153706,24.8423489 155.296996,24.0302943 155.296996,23.1701267 C155.296996,22.5446569 155.212432,21.9426569 155.048,21.3653002 C154.880045,20.789117 154.646318,20.2856901 154.34212,19.8550195 C154.037922,19.4255224 153.685569,19.0828635 153.286236,18.8282164 C152.884553,18.5735692 152.44881,18.4468324 151.977832,18.4468324 C151.136883,18.4468324 150.519091,18.6615809 150.129153,19.091078 C149.736867,19.522922 149.427971,20.0404308 149.20364,20.6471248 C148.978134,21.2526452 148.767897,21.8839825 148.571754,22.5387895 C148.376785,23.19477 148.062016,23.7568713 147.63332,24.2250936 C147.279793,24.5982632 146.826432,24.8763801 146.267365,25.0617914 C145.709473,25.2483762 145.176246,25.3410819 144.667683,25.3410819 C144.139154,25.3410819 143.66935,25.2518967 143.258271,25.0770468 C142.846018,24.9010234 142.49484,24.6616316 142.201213,24.3588713 C141.907585,24.0549376 141.687952,23.7028908 141.541138,23.3015575 C141.394324,22.9013977 141.32033,22.4754211 141.32033,22.0248012 C141.32033,21.4204542 141.467144,20.8125867 141.760771,20.2070663 C142.054399,19.6003723 142.577056,19.0523528 143.331091,18.5641813 C144.085126,18.0748363 145.097554,17.6793704 146.369548,17.3766101 C147.642716,17.0726764 149.257667,16.9212963 151.2144,16.9212963 C153.388418,16.9212963 155.242969,17.1407388 156.779228,17.5807973 C158.316661,18.0208558 159.568688,18.6615809 160.537659,19.5029727 C161.507804,20.3443645 162.211335,21.3852495 162.651777,22.6268012 C163.092218,23.8695263 163.313026,25.2824074 163.313026,26.8654444 C163.313026,28.7641501 163.253126,30.5431598 163.135675,32.2059942 C163.019398,33.867655 162.934833,35.340384 162.885504,36.6206608 C162.837349,37.9021111 162.862014,38.9582515 162.959498,39.7890819 C163.058157,40.6210858 163.330643,41.1350741 163.782829,41.3298733 C163.977798,41.4284464 164.223271,41.4718655 164.516898,41.4613041 C164.810526,41.4519162 165.122945,41.417885 165.455331,41.3592105 L165.455331,41.3592105 Z M155.267634,28.2454678 C155.267634,28.1281189 155.21713,28.0494951 155.12082,28.01077 C155.022161,27.9720448 154.934073,28.0002086 154.856555,28.0987817 C154.699171,28.2748051 154.557055,28.4402671 154.430208,28.5975146 C154.302187,28.7547622 154.131883,28.9401735 153.916947,29.154922 C153.544628,29.5468674 153.161738,29.9129961 152.7718,30.2544815 C152.379514,30.5971404 151.987228,30.9444932 151.597291,31.29654 C151.205004,31.6086881 150.818591,31.9220097 150.436875,32.2353314 C150.056334,32.5474795 149.698108,32.8901384 149.365722,33.2621345 C148.855985,33.8488791 148.480142,34.4896043 148.234669,35.1831365 C147.989197,35.8778421 147.867048,36.6159669 147.867048,37.3986842 C147.867048,37.9267544 147.94574,38.4595185 148.103124,38.9969766 C148.259334,39.5356082 148.497759,40.0143918 148.821924,40.434501 C149.144914,40.8557836 149.555993,41.197269 150.056334,41.4613041 C150.553151,41.7253392 151.15685,41.8579435 151.861555,41.8579435 C152.565087,41.8579435 153.139422,41.7112573 153.579863,41.417885 C154.020304,41.1245127 154.362087,40.7724659 154.607559,40.3605712 C154.850683,39.9510234 155.022161,39.5356082 155.12082,39.1143255 C155.21713,38.6942164 155.267634,38.3668129 155.267634,38.132115 L155.267634,28.2454678 Z" id="Fill-21" fill="#FEFEFE" mask="url(#mask-2)"></path>
                <path d="M205.76435,23.2400549 C207.407354,23.6529492 208.760487,24.2085871 209.823749,24.9057888 C210.887011,25.6041701 211.727758,26.3910288 212.3508,27.2651852 C212.970235,28.1405213 213.403237,29.0842798 213.642591,30.0964609 C213.883148,31.1098217 214.00463,32.1467764 214.00463,33.2085048 C214.00463,34.622963 213.753248,35.971358 213.252889,37.2489712 C212.750125,38.5265844 211.933434,39.6520165 210.800411,40.6252675 C209.667387,41.5996982 208.185556,42.3712209 206.350106,42.9410151 C204.515859,43.511989 202.265449,43.7962963 199.600077,43.7962963 L179.782993,43.7962963 C179.583331,43.7962963 179.432983,43.7526475 179.331949,43.6629904 C179.232118,43.574513 179.177992,43.4765981 179.16837,43.3680658 C179.157545,43.2607133 179.19844,43.1580796 179.287446,43.0589849 C179.378857,42.96107 179.513569,42.8914678 179.693987,42.8525377 C179.933341,42.8136077 180.314624,42.7298491 180.83543,42.601262 C181.357439,42.4738546 181.884258,42.2426337 182.414687,41.9087791 C182.945115,41.5749246 183.412998,41.1219204 183.813525,40.5521262 C184.214053,39.9811523 184.414918,39.235583 184.414918,38.3095199 L184.414918,9.46707819 C184.414918,8.56342936 184.214053,7.82021948 183.813525,7.23980796 C183.412998,6.66057613 182.945115,6.20757202 182.414687,5.88315501 C181.884258,5.5599177 181.357439,5.32751715 180.83543,5.19067215 C180.314624,5.05264746 179.933341,4.96534979 179.693987,4.92524005 C179.513569,4.90518519 179.378857,4.84148148 179.287446,4.73294925 C179.19844,4.62559671 179.157545,4.51706447 179.16837,4.40853224 C179.177992,4.3011797 179.232118,4.20208505 179.331949,4.11360768 C179.432983,4.02513032 179.583331,3.98148148 179.782993,3.98148148 L200.712654,3.98148148 C202.817527,3.98148148 204.577201,4.22803841 205.989271,4.71879287 C207.402543,5.21072702 208.546392,5.88315501 209.418411,6.73961591 C210.29043,7.59371742 210.909864,8.59646091 211.281525,9.74666667 C211.653185,10.8968724 211.838414,12.1213992 211.838414,13.4190672 C211.838414,14.322716 211.73738,15.2275446 211.537718,16.1323731 C211.338055,17.0360219 211.001276,17.9019204 210.529784,18.7277092 C210.059495,19.5534979 209.428033,20.3191221 208.636601,21.0281207 C207.843965,21.7359396 206.867304,22.3552812 205.704211,22.8861454 C205.585135,22.9451303 205.533415,23.008834 205.553863,23.0772565 C205.573107,23.1468587 205.642869,23.2011248 205.76435,23.2400549 L205.76435,23.2400549 Z M194.337893,20.6447188 C194.337893,21.1956379 194.493053,21.6333059 194.804574,21.9565432 C195.114893,22.2821399 195.561126,22.4437586 196.142071,22.4437586 C196.662877,22.4437586 197.240213,22.3257888 197.871676,22.0886694 C198.501935,21.8539095 199.088894,21.3973663 199.628944,20.7178601 C200.172603,20.0395336 200.623647,19.0863374 200.982077,17.8582716 C201.344116,16.6290261 201.525736,15.0210974 201.525736,13.0356653 C201.525736,12.1697668 201.494464,11.2956104 201.433122,10.4108368 C201.375388,9.5260631 201.213012,8.72504801 200.953211,8.0066118 C200.692206,7.28935528 200.310923,6.70422497 199.810565,6.25240055 C199.310206,5.80057613 198.617402,5.57289438 197.735761,5.57289438 C197.015293,5.57289438 196.427131,5.70737997 195.976087,5.97163237 C195.525042,6.23706447 195.179843,6.64052126 194.939286,7.18200274 C194.698729,7.72230453 194.538759,8.39001372 194.459375,9.18631001 C194.377585,9.98378601 194.337893,10.9122085 194.337893,11.9739369 L194.337893,20.6447188 Z M198.337153,42.1152263 C199.120166,42.1152263 199.775684,41.952428 200.306112,41.628011 C200.83654,41.3047737 201.279165,40.8765432 201.629176,40.345679 C201.980389,39.8148148 202.251015,39.2202469 202.441055,38.5607956 C202.632298,37.902524 202.768213,37.2383539 202.847597,36.5706447 C202.928183,35.9017558 202.977498,35.2623594 202.997945,34.6536351 C203.017189,34.0437311 203.029217,33.5234842 203.029217,33.090535 C203.029217,31.5958573 202.907736,30.3335802 202.667179,29.3013443 C202.427825,28.2691084 202.105478,27.418546 201.704951,26.7496571 C201.304424,26.0807682 200.85819,25.5652401 200.367454,25.2007133 C199.875515,24.8373663 199.384779,24.5719342 198.894043,24.404417 C198.402104,24.2380796 197.930612,24.1401646 197.479568,24.1094925 C197.028523,24.08 196.653254,24.0658436 196.352558,24.0658436 C195.730718,24.0658436 195.239982,24.2274623 194.879147,24.5518793 C194.517108,24.877476 194.337893,25.315144 194.337893,25.8648834 L194.337893,35.1255144 C194.337893,36.1872428 194.393222,37.1510562 194.503878,38.0145953 C194.613331,38.8816735 194.817805,39.6130864 195.118501,40.2135528 C195.419197,40.8128395 195.825738,41.28 196.338125,41.6138546 C196.848106,41.9477092 197.515651,42.1152263 198.337153,42.1152263 L198.337153,42.1152263 Z" id="Fill-22" fill="#FEFEFE" mask="url(#mask-2)"></path>
                <path d="M231.216242,16.9212963 C233.210135,16.9212963 235.044934,17.2792105 236.718318,17.9915185 C238.392863,18.7061735 239.829348,19.6836901 241.030096,20.9252417 C242.229684,22.1679669 243.167986,23.6301345 243.845004,25.3117446 C244.523183,26.9945283 244.861111,28.7934873 244.861111,30.7097953 C244.861111,32.6460526 244.494151,34.464961 243.75907,36.1665205 C243.022828,37.8680799 242.017172,39.3595848 240.73978,40.6410351 C239.462388,41.9224854 237.957388,42.9340331 236.223619,43.6768519 C234.492172,44.4208441 232.629502,44.7916667 230.63561,44.7916667 C228.641717,44.7916667 226.80924,44.4337524 225.135856,43.7214444 C223.46015,43.0067895 222.023665,42.0292729 220.824078,40.7877212 C219.624491,39.5449961 218.685027,38.0875224 218.006848,36.4153002 C217.32983,34.7442515 216.990741,32.939425 216.990741,31.0031676 C216.990741,29.0868596 217.357701,27.2726452 218.095104,25.5605244 C218.830185,23.849577 219.837002,22.3533782 221.114394,21.0719279 C222.390625,19.7916511 223.895625,18.7801033 225.628233,18.0361111 C227.360841,17.2921189 229.22235,16.9212963 231.216242,16.9212963 M230.925926,43.2367934 C231.8561,43.2367934 232.663179,42.9140838 233.350648,42.2686647 C234.038117,41.6232456 234.60946,40.7384347 235.063515,39.614232 C235.518731,38.4888558 235.861304,37.1745478 236.094718,35.6677875 C236.32581,34.1610273 236.441937,32.5580409 236.441937,30.8564815 C236.441937,29.154922 236.32581,27.5519357 236.094718,26.0451754 C235.861304,24.5395887 235.518731,23.2241072 235.063515,22.098731 C234.60946,20.9745283 234.038117,20.0897173 233.350648,19.4442982 C232.663179,18.7988791 231.8561,18.4761696 230.925926,18.4761696 C229.998075,18.4761696 229.188673,18.7988791 228.502365,19.4442982 C227.814896,20.0897173 227.240069,20.9745283 226.775563,22.098731 C226.309896,23.2241072 225.966161,24.5395887 225.74436,26.0451754 C225.521397,27.5519357 225.409915,29.154922 225.409915,30.8564815 C225.409915,32.5580409 225.521397,34.1610273 225.74436,35.6677875 C225.966161,37.1745478 226.309896,38.4888558 226.775563,39.614232 C227.240069,40.7384347 227.814896,41.6232456 228.502365,42.2686647 C229.188673,42.9140838 229.998075,43.2367934 230.925926,43.2367934" id="Fill-23" fill="#FEFEFE" mask="url(#mask-2)"></path>
                <path d="M276.31488,43.2227477 C276.463726,43.2610991 276.571163,43.3238559 276.636074,43.411018 C276.702103,43.4981802 276.725605,43.589991 276.706579,43.6864505 C276.688673,43.7840721 276.636074,43.8723964 276.553257,43.9490991 C276.469322,44.0258018 276.351812,44.0653153 276.202966,44.0653153 L266.074748,44.0653153 C265.868827,44.0653153 265.706551,44.0176667 265.584565,43.920045 C265.464817,43.8235856 265.403264,43.6678559 265.403264,43.454018 L265.403264,41.740991 C264.620985,42.5545045 263.603687,43.2657477 262.353608,43.8758829 C261.103528,44.486018 259.555757,44.7916667 257.709176,44.7916667 C256.179312,44.7916667 254.897896,44.6161802 253.862692,44.2675315 C252.827487,43.920045 251.969107,43.454018 251.288669,42.8729369 C250.607113,42.2918559 250.085594,41.6247748 249.721873,40.8693694 C249.357034,40.1128018 249.097393,39.3283423 248.937356,38.5148288 C248.779557,37.7024775 248.686669,36.8936126 248.657571,36.0893964 C248.630712,35.2863423 248.616163,34.5344234 248.616163,33.8382883 L248.616163,22.476991 C248.616163,21.702991 248.467317,21.0777477 248.168507,20.6035856 C247.870816,20.1294234 247.529478,19.7621802 247.147851,19.4995315 C246.765105,19.238045 246.392431,19.0590721 246.028711,18.9626126 C245.66499,18.864991 245.407588,18.7975856 245.258743,18.7580721 C245.109897,18.7406396 245.002459,18.6813694 244.937549,18.5849099 C244.87152,18.4884505 244.849137,18.3908288 244.867044,18.2943694 C244.886069,18.1979099 244.937549,18.1107477 245.020366,18.0317207 C245.10542,17.955018 245.221811,17.9166667 245.370657,17.9166667 L255.498874,17.9166667 C255.94765,17.9166667 256.170359,18.1676937 256.170359,18.6720721 L256.170359,35.6686937 C256.189384,36.4426937 256.258771,37.2178559 256.380757,37.993018 C256.501624,38.767018 256.725452,39.4701261 257.051122,40.0988559 C257.377911,40.7287477 257.835639,41.2366126 258.423188,41.6247748 C259.009617,42.0117748 259.798611,42.2058559 260.786811,42.2058559 C261.832088,42.2058559 262.656895,41.9780721 263.263469,41.5225045 C263.868923,41.0680991 264.330009,40.4905045 264.647845,39.7943694 C264.964561,39.0959099 265.169364,38.3265586 265.263372,37.4851532 C265.35738,36.6414234 265.403264,35.8337207 265.403264,35.0585586 L265.403264,22.476991 C265.403264,21.702991 265.254419,21.0777477 264.955608,20.6035856 C264.657917,20.1294234 264.316579,19.7621802 263.933833,19.4995315 C263.552207,19.238045 263.179533,19.0590721 262.814693,18.9626126 C262.452092,18.864991 262.19469,18.7975856 262.045844,18.7580721 C261.896998,18.7406396 261.789561,18.6813694 261.724651,18.5849099 C261.658622,18.4884505 261.63512,18.3908288 261.654145,18.2943694 C261.672051,18.1979099 261.724651,18.1107477 261.807467,18.0317207 C261.892522,17.955018 262.008912,17.9166667 262.157758,17.9166667 L272.285976,17.9166667 C272.734751,17.9166667 272.95746,18.1676937 272.95746,18.6720721 L272.95746,39.5038288 C272.95746,40.278991 273.106306,40.9030721 273.405116,41.3772342 C273.702807,41.8513964 274.044145,42.2198018 274.426891,42.4812883 C274.808518,42.7427748 275.182311,42.9275586 275.546031,43.0333153 C275.909752,43.1402342 276.166035,43.202991 276.31488,43.2227477" id="Fill-24" fill="#FEFEFE" mask="url(#mask-2)"></path>
                <path d="M291.498745,39.1742495 C291.498745,39.9548618 291.663559,40.5814059 291.995459,41.0561643 C292.32736,41.532064 292.705864,41.9086752 293.132107,42.1848568 C293.558349,42.4598971 293.974362,42.6550502 294.382418,42.7680335 C294.789338,42.8832994 295.068953,42.9506329 295.220127,42.9688929 C295.372438,43.006554 295.481556,43.0681813 295.548618,43.1537747 C295.613407,43.2405094 295.637277,43.3306679 295.61909,43.4253913 C295.598631,43.521256 295.548618,43.6068494 295.461096,43.6821717 C295.376984,43.7586352 295.258773,43.7962963 295.106462,43.7962963 L280.216386,43.7962963 C280.065212,43.7962963 279.947001,43.7586352 279.861753,43.6821717 C279.776504,43.6068494 279.724218,43.521256 279.706032,43.4253913 C279.685572,43.3306679 279.710578,43.2405094 279.776504,43.1537747 C279.84243,43.0681813 279.951548,43.006554 280.103858,42.9688929 C280.253896,42.9506329 280.534648,42.8832994 280.941567,42.7680335 C281.348487,42.6550502 281.765636,42.4598971 282.191879,42.1848568 C282.619258,41.9086752 282.996625,41.532064 283.329663,41.0561643 C283.660427,40.5814059 283.826377,39.9548618 283.826377,39.1742495 L283.826377,7.19082667 C283.826377,6.94431751 283.711576,6.79139053 283.484247,6.73432822 C283.446737,6.73432822 283.309203,6.70579707 283.07278,6.64873476 C282.836358,6.59167246 282.565836,6.52548018 282.263488,6.44901669 C281.958866,6.37369444 281.679251,6.30636092 281.424642,6.24815737 C281.168897,6.19223631 281.012039,6.15343394 280.956344,6.135174 C280.709691,6.0781117 280.58125,5.95029213 280.572157,5.74943281 C280.563064,5.54971474 280.700598,5.4127652 280.98476,5.33630171 C281.722444,5.16511479 282.52378,4.93230058 283.384222,4.63671783 C284.246937,4.34227633 285.114198,4.01017371 285.98487,3.63812747 C286.856678,3.26722248 287.70007,2.86892758 288.515046,2.43981903 C289.328886,2.01185174 290.057476,1.5804607 290.701955,1.14222218 C290.872452,1.02809757 291.048633,0.980165234 291.228223,0.999566418 C291.407813,1.01782636 291.498745,1.16048212 291.498745,1.42753372 L291.498745,39.1742495 Z" id="Fill-25" fill="#FEFEFE" mask="url(#mask-2)"></path>
                <path d="M305.479576,28.5095029 C305.162071,28.5095029 305.005103,28.6761384 305.005103,29.0082359 C305.005103,31.0031676 305.182287,32.7152885 305.539033,34.1422515 C305.896969,35.5703879 306.41663,36.7391832 307.099205,37.6474639 C307.782969,38.5580916 308.634404,39.228154 309.657078,39.6576511 C310.676183,40.0883216 311.860582,40.3030702 313.209084,40.3030702 C314.238892,40.3030702 315.15692,40.1962827 315.959599,39.9803606 C316.76109,39.7656121 317.460313,39.5156589 318.054891,39.232848 C318.649468,38.9488635 319.134644,38.6801345 319.511606,38.4254873 C319.887379,38.1708402 320.16683,38.0053782 320.344014,37.9267544 C320.621087,37.8094055 320.839892,37.8340487 320.99805,38.0006842 C321.156207,38.1661462 321.156207,38.4149259 320.99805,38.7481969 C320.938592,38.8655458 320.805406,39.0955497 320.596115,39.4382086 C320.389202,39.779694 320.085968,40.1751598 319.689979,40.6257797 C319.292801,41.0763996 318.798113,41.5446218 318.203535,42.0339669 C317.608958,42.5221384 316.900221,42.9727583 316.078515,43.3834795 C315.25562,43.7942008 314.313809,44.1321657 313.254272,44.3950273 C312.193545,44.6602359 311.007958,44.7916667 309.701076,44.7916667 C307.719944,44.7916667 305.925509,44.483039 304.31896,43.8681306 C302.71479,43.2520487 301.342505,42.3566764 300.203295,41.1831871 C299.062895,40.0096979 298.180542,38.5827349 297.556235,36.8999513 C296.933118,35.2183411 296.62037,33.320809 296.62037,31.2085283 C296.62037,28.9014483 297.006846,26.85723 297.778607,25.0770468 C298.552747,23.298037 299.56234,21.8053587 300.812142,20.6037057 C302.060755,19.3997057 303.477039,18.486731 305.062182,17.8600877 C306.648515,17.2346179 308.263388,16.9212963 309.910368,16.9212963 C311.453891,16.9212963 312.817852,17.1325244 313.997494,17.55146 C315.174757,17.9727427 316.19743,18.5195887 317.058379,19.1955185 C317.920516,19.8702749 318.635198,20.6224815 319.200047,21.4533119 C319.764896,22.2853158 320.220342,23.1114522 320.567575,23.9328947 C320.91362,24.7543372 321.156207,25.5276667 321.295338,26.2505361 C321.434469,26.9734055 321.50463,27.5519357 321.50463,27.9814327 C321.50463,28.1774055 321.439226,28.3147037 321.310797,28.392154 C321.181179,28.4707778 321.007563,28.5095029 320.789947,28.5095029 L305.479576,28.5095029 Z M305.153747,26.5732456 C305.112127,26.8267193 305.232231,26.9546296 305.508115,26.9546296 C305.568762,26.9546296 305.766162,26.9499357 306.102693,26.9393743 C306.440413,26.9299864 306.850672,26.9159045 307.337036,26.8959552 C307.8234,26.8760058 308.343061,26.85723 308.898397,26.8372807 C309.452543,26.8185049 309.984095,26.7985556 310.488297,26.7786062 C310.994877,26.7598304 311.430108,26.744575 311.796368,26.7340136 C312.162627,26.7246257 312.395702,26.7105439 312.494402,26.6905945 C312.813095,26.6718187 313.144869,26.533347 313.490914,26.2798733 C313.836958,26.0263996 314.011763,25.5863411 314.011763,24.9596979 C314.011763,24.3929025 313.93209,23.7380955 313.775122,22.9941033 C313.614586,22.2512846 313.362485,21.5460175 313.015251,20.8818226 C312.669207,20.2176277 312.228031,19.6543528 311.6941,19.1955185 C311.156602,18.7355107 310.504945,18.5055068 309.730805,18.5055068 C309.116012,18.5055068 308.580892,18.6662749 308.126635,18.9901579 C307.66881,19.311694 307.278767,19.7329766 306.950561,20.2516589 C306.623543,20.7691676 306.351226,21.3418304 306.133611,21.9673002 C305.914806,22.5939435 305.736433,23.2041579 305.59968,23.8002904 C305.45936,24.3975965 305.355904,24.945616 305.285743,25.4443489 C305.215583,25.9419084 305.171585,26.3197719 305.153747,26.5732456 L305.153747,26.5732456 Z" id="Fill-26" fill="#FEFEFE" mask="url(#mask-2)"></path>
                <path d="M343.910078,22.6473632 C343.794471,22.8609701 343.57127,23.3392639 343.237041,24.0834053 C342.902812,24.8287077 342.498761,25.737698 342.021455,26.8115371 C341.544148,27.8865371 341.019912,29.0660187 340.447602,30.3534647 C339.875292,31.6397498 339.302982,32.9399658 338.730672,34.2564345 C337.375442,37.3316775 335.85882,40.7575144 334.180807,44.5304626 C334.084659,44.7045986 333.947304,44.7916667 333.766455,44.7916667 C333.58446,44.7916667 333.445961,44.7138859 333.349813,44.5594852 C331.767948,40.7865371 330.317714,37.3618611 329.001401,34.2842963 C328.447405,32.9701494 327.894553,31.6687725 327.340557,30.3813265 C326.787706,29.0950414 326.282928,27.9143988 325.82508,26.8405598 C325.367232,25.7678816 324.975772,24.8577304 324.651845,24.1135889 C324.327917,23.3682865 324.10815,22.8795446 323.993688,22.6473632 C323.707533,22.0866451 323.430535,21.5979032 323.163838,21.1811375 C322.897142,20.7655328 322.610987,20.4021688 322.305373,20.0933675 C321.99976,19.7834053 321.656374,19.5268449 321.275215,19.324847 C320.894057,19.1205274 320.445366,18.9510349 319.930287,18.8163697 C319.778052,18.7780598 319.668169,18.7095662 319.601781,18.61205 C319.534248,18.5156947 319.505632,18.4146958 319.515934,18.3090533 C319.525091,18.2022498 319.57202,18.1105382 319.659012,18.0315965 C319.744858,17.9549766 319.862754,17.9166667 320.016133,17.9166667 L335.039272,17.9166667 C335.172048,17.9166667 335.28651,17.9549766 335.382658,18.0315965 C335.477662,18.1105382 335.534893,18.2022498 335.554351,18.3090533 C335.572665,18.4146958 335.554351,18.5214993 335.495976,18.6271418 C335.439889,18.7339453 335.325427,18.8059215 335.153734,18.8453924 C334.867579,18.9231731 334.519615,19.0241721 334.108696,19.14955 C333.698922,19.2760889 333.32692,19.4699604 332.992691,19.7300036 C332.659607,19.9912077 332.415803,20.3406407 332.263568,20.7759809 C332.110189,21.2113211 332.138805,21.7766829 332.34827,22.4732271 C332.444418,22.7820284 332.611533,23.2556785 332.849614,23.8953384 C333.088839,24.5338373 333.364693,25.2443125 333.679463,26.0279248 C333.994234,26.8115371 334.323885,27.6241721 334.667271,28.4669906 C335.010657,29.3074874 335.330006,30.0760079 335.626462,30.7737131 C335.921774,31.4702574 336.169012,32.0553546 336.369321,32.5301656 C336.569629,33.0038157 336.68867,33.2685025 336.727587,33.3277088 C336.860363,33.5796256 336.994283,33.5796256 337.128204,33.3277088 C337.185435,33.1918826 337.313632,32.8737941 337.513941,32.3699604 C337.714249,31.8661267 337.953475,31.2578114 338.229328,30.5415317 C338.505182,29.8264129 338.801638,29.0567315 339.117554,28.2336483 C339.431179,27.4117261 339.727636,26.6188265 340.00349,25.8549496 C340.280488,25.0899118 340.52887,24.4038157 340.747493,23.7931785 C340.96726,23.1837023 341.114916,22.7437185 341.191605,22.4732271 C341.401071,21.7766829 341.429686,21.2113211 341.277452,20.7759809 C341.124073,20.3406407 340.89057,19.9912077 340.5758,19.7300036 C340.261029,19.4699604 339.908486,19.2760889 339.517026,19.14955 C339.125566,19.0241721 338.786758,18.9231731 338.500603,18.8453924 C338.330055,18.8059215 338.214448,18.7339453 338.158362,18.6271418 C338.101131,18.5214993 338.081672,18.4146958 338.101131,18.3090533 C338.119445,18.2022498 338.172097,18.1105382 338.259088,18.0315965 C338.344935,17.9549766 338.462831,17.9166667 338.61621,17.9166667 L347.887633,17.9166667 C348.020409,17.9166667 348.131437,17.9549766 348.217283,18.0315965 C348.301985,18.1105382 348.354638,18.2022498 348.372952,18.3090533 C348.39241,18.4146958 348.369518,18.5156947 348.301985,18.61205 C348.234453,18.7095662 348.125714,18.7780598 347.973479,18.8163697 C347.4584,18.9510349 347.009709,19.1205274 346.628551,19.324847 C346.246248,19.5268449 345.902862,19.7834053 345.598393,20.0933675 C345.292779,20.4021688 345.006624,20.7655328 344.739928,21.1811375 C344.472086,21.5979032 344.196233,22.0866451 343.910078,22.6473632" id="Fill-27" fill="#FEFEFE" mask="url(#mask-2)"></path>
                <path d="M373.48791,41.3592105 C373.761573,41.3005361 373.97651,41.3545166 374.135069,41.521152 C374.29128,41.686614 374.299502,41.90723 374.163258,42.180653 C374.045806,42.396575 373.85436,42.6500487 373.591268,42.9434211 C373.327001,43.2367934 372.974646,43.5102164 372.534202,43.7648635 C372.093758,44.0195107 371.554655,44.2342593 370.918066,44.4102827 C370.282652,44.586306 369.53331,44.6743177 368.672389,44.6743177 C367.477904,44.6743177 366.474866,44.4337524 365.663275,43.9549688 C364.850509,43.4761852 364.28674,42.9234717 363.974319,42.2980019 C363.896801,42.1419279 363.784047,42.072692 363.637232,42.0926413 C363.490417,42.1125906 363.367093,42.1700916 363.270783,42.2674912 C363.210882,42.3273392 363.030007,42.4881072 362.726981,42.7521423 C362.422781,43.0161774 361.992908,43.3001618 361.435012,43.602922 C360.877116,43.9068558 360.205292,44.1791053 359.423063,44.4243645 C358.63966,44.6684503 357.73998,44.7916667 356.721673,44.7916667 C354.979864,44.7916667 353.516415,44.5464074 352.332501,44.0582359 C351.147413,43.5700643 350.187832,42.9387271 349.453759,42.1653977 C348.719686,41.3932417 348.192327,40.5225127 347.869335,39.554384 C347.545168,38.5874288 347.384259,37.6228207 347.384259,36.6652534 C347.384259,35.1209415 347.820005,33.7702554 348.691497,32.6167154 C349.561815,31.4620019 350.692875,30.6018343 352.082329,30.035039 C352.825799,29.7416667 353.603329,29.5316121 354.41727,29.4037018 C355.228862,29.2769649 356.03693,29.1455341 356.839125,29.0082359 C357.64132,28.8709376 358.430596,28.6996082 359.203429,28.4942476 C359.976261,28.2888869 360.705637,27.9520955 361.39038,27.4826998 C362.113883,26.9945283 362.618926,26.367885 362.903159,25.605117 C363.186217,24.8423489 363.328334,24.0302943 363.328334,23.1701267 C363.328334,22.5446569 363.244943,21.9426569 363.079336,21.3653002 C362.912555,20.789117 362.677651,20.2856901 362.373451,19.8550195 C362.070426,19.4255224 361.718071,19.0828635 361.31756,18.8282164 C360.915875,18.5735692 360.481304,18.4468324 360.010322,18.4468324 C359.169368,18.4468324 358.551571,18.6615809 358.160457,19.091078 C357.769343,19.522922 357.460445,20.0404308 357.234937,20.6471248 C357.010605,21.2526452 356.799191,21.8839825 356.604221,22.5387895 C356.409252,23.19477 356.094481,23.7568713 355.664608,24.2250936 C355.312252,24.5982632 354.857714,24.8763801 354.298644,25.0617914 C353.741922,25.2483762 353.207517,25.3410819 352.700125,25.3410819 C352.170418,25.3410819 351.700611,25.2518967 351.28953,25.0770468 C350.878449,24.9010234 350.526094,24.6616316 350.232464,24.3588713 C349.938835,24.0549376 349.7192,23.7028908 349.572385,23.3015575 C349.425571,22.9013977 349.351576,22.4754211 349.351576,22.0248012 C349.351576,21.4204542 349.498391,20.8125867 349.79202,20.2070663 C350.085649,19.6003723 350.609484,19.0523528 351.36235,18.5641813 C352.117565,18.0748363 353.128824,17.6793704 354.402001,17.3766101 C355.675178,17.0726764 357.29014,16.9212963 359.246886,16.9212963 C361.419743,16.9212963 363.275481,17.1407388 364.81175,17.5807973 C366.348019,18.0208558 367.601229,18.6615809 368.570206,19.5029727 C369.539183,20.3443645 370.243893,21.3852495 370.684337,22.6268012 C371.124781,23.8695263 371.34559,25.2824074 371.34559,26.8654444 C371.34559,28.7641501 371.28569,30.5431598 371.168238,32.2059942 C371.051961,33.867655 370.967396,35.340384 370.918066,36.6206608 C370.869911,37.9021111 370.893401,38.9582515 370.992061,39.7890819 C371.09072,40.6210858 371.363208,41.1350741 371.814223,41.3298733 C372.010367,41.4284464 372.254667,41.4718655 372.548296,41.4613041 C372.841926,41.4519162 373.155522,41.417885 373.48791,41.3592105 L373.48791,41.3592105 Z M363.298971,28.2454678 C363.298971,28.1281189 363.249641,28.0494951 363.152156,28.01077 C363.054671,27.9720448 362.965408,28.0002086 362.88789,28.0987817 C362.731679,28.2748051 362.589563,28.4402671 362.462715,28.5975146 C362.334692,28.7547622 362.163213,28.9401735 361.949451,29.154922 C361.575954,29.5468674 361.194236,29.9129961 360.803121,30.2544815 C360.412007,30.5971404 360.019718,30.9444932 359.628604,31.29654 C359.23749,31.6086881 358.849899,31.9220097 358.469355,32.2353314 C358.087637,32.5474795 357.730584,32.8901384 357.398195,33.2621345 C356.888455,33.8488791 356.511435,34.4896043 356.267135,35.1831365 C356.021661,35.8778421 355.899511,36.6159669 355.899511,37.3986842 C355.899511,37.9267544 355.978204,38.4595185 356.134414,38.9969766 C356.290625,39.5356082 356.530227,40.0143918 356.854394,40.434501 C357.177386,40.8557836 357.588467,41.197269 358.087637,41.4613041 C358.585632,41.7253392 359.18816,41.8579435 359.894045,41.8579435 C360.597581,41.8579435 361.170745,41.7112573 361.61119,41.417885 C362.051634,41.1245127 362.394593,40.7724659 362.638892,40.3605712 C362.883192,39.9510234 363.054671,39.5356082 363.152156,39.1143255 C363.249641,38.6942164 363.298971,38.3668129 363.298971,38.132115 L363.298971,28.2454678 Z" id="Fill-28" fill="#FEFEFE" mask="url(#mask-2)"></path>
                <path d="M393.631344,17.070012 C394.462417,17.070012 395.166273,17.1717163 395.739344,17.3739693 C396.315983,17.5750665 396.779672,17.8455076 397.137544,18.1829812 C397.495417,18.5192989 397.75104,18.914559 397.911548,19.3664499 C398.068489,19.8194966 398.148148,20.2968135 398.148148,20.7972452 C398.148148,21.7218301 397.846156,22.4441621 397.242172,22.9642412 C396.635809,23.4843202 395.830893,23.7443598 394.820289,23.7443598 C394.047475,23.7443598 393.441112,23.6091392 393.007147,23.3398538 C392.569615,23.0694127 392.198664,22.775857 391.891916,22.4580309 C391.58279,22.1413606 391.302199,21.8478048 391.044198,21.5773637 C390.786197,21.3080784 390.468748,21.1728578 390.091853,21.1728578 C389.755381,21.1728578 389.39513,21.283808 389.007534,21.5057084 C388.622316,21.7264531 388.264443,22.1459835 387.937483,22.7619882 C387.612901,23.3791487 387.338255,24.2251439 387.119489,25.3045969 C386.901911,26.3840498 386.794906,27.7801732 386.794906,29.4941225 L386.794906,39.4911975 C386.794906,40.2609145 386.926879,40.8688291 387.194392,41.3114742 C387.464283,41.7541192 387.769842,42.0915928 388.115825,42.322739 C388.461808,42.5538852 388.805413,42.7122204 389.143074,42.800056 C389.479546,42.8867358 389.725657,42.9398995 389.886165,42.9583912 C390.043106,42.997686 390.157245,43.0589398 390.227392,43.1456196 C390.296351,43.2334552 390.32013,43.324758 390.301107,43.4206837 C390.280895,43.5177651 390.227392,43.6044449 390.138221,43.6807232 C390.047862,43.7581572 389.9254,43.7962963 389.76727,43.7962963 L386.794906,43.7962963 L386.525016,43.7962963 L379.037036,43.7962963 L378.769523,43.7962963 L375.797159,43.7962963 C375.636652,43.7962963 375.51419,43.7581572 375.425019,43.6807232 C375.334659,43.6044449 375.281157,43.5177651 375.260945,43.4206837 C375.241922,43.324758 375.265701,43.2334552 375.334659,43.1456196 C375.404807,43.0589398 375.518946,42.997686 375.677076,42.9583912 C375.836395,42.9398995 376.082506,42.8867358 376.420167,42.800056 C376.757827,42.7122204 377.100244,42.5538852 377.446227,42.322739 C377.79221,42.0915928 378.100147,41.7541192 378.36766,41.3114742 C378.635173,40.8688291 378.769523,40.2609145 378.769523,39.4911975 L378.769523,23.1953874 C378.769523,22.9457495 378.64944,22.7908815 378.411651,22.7330949 C378.372416,22.7330949 378.228553,22.7042017 377.981252,22.6464151 C377.733952,22.5886285 377.450983,22.5215961 377.134723,22.4441621 C376.816086,22.3678839 376.523605,22.2996957 376.257281,22.2419092 C375.989768,22.1841226 375.825694,22.1459835 375.767436,22.1263361 C375.509434,22.0685495 375.375084,21.9391076 375.365572,21.7356989 C375.35606,21.5334459 375.499923,21.3947582 375.797159,21.3173242 C376.568785,21.1439645 377.406992,20.9081954 378.307024,20.6100167 C379.209433,20.3118381 380.116599,19.9743645 381.027331,19.5987519 C381.939252,19.2219835 382.82145,18.8186333 383.673924,18.3852341 C384.525209,17.9518349 385.287323,17.5138128 385.961455,17.070012 C386.139797,16.9544389 386.324084,16.9058982 386.511937,16.9255456 C386.699791,16.945193 386.794906,17.0896594 386.794906,17.3589448 L386.794906,21.4906839 C387.486873,20.0078807 388.429707,18.9006902 389.618652,18.1679567 C390.807598,17.4352231 392.145162,17.070012 393.631344,17.070012" id="Fill-29" fill="#FEFEFE" mask="url(#mask-2)"></path>
                <path d="M429.591041,43.2409965 C429.745825,43.2789018 429.854747,43.3409286 429.922393,43.427077 C429.987746,43.5132253 430.011824,43.6039682 429.994626,43.6993057 C429.973988,43.7957919 429.922393,43.8830888 429.835256,43.9588994 C429.750411,44.0347099 429.628877,44.0737638 429.476387,44.0737638 L419.102433,44.0737638 C418.891469,44.0737638 418.722926,44.0266694 418.600246,43.9301833 C418.475272,43.8348458 418.412212,43.6809274 418.412212,43.4695768 L418.412212,40.9437075 C418.412212,40.8093161 418.365204,40.7243164 418.268894,40.6841138 C418.174877,40.6462085 418.087739,40.6760733 418.010921,40.7714108 C417.838939,40.9816127 417.552302,41.3112737 417.151011,41.7615424 C416.750866,42.211811 416.20167,42.6620797 415.503424,43.1111997 C414.806323,43.5614684 413.946413,43.9543048 412.923694,44.2885604 C411.902121,44.6228159 410.701686,44.7916667 409.326977,44.7916667 C407.797484,44.7916667 406.460611,44.5906539 405.314064,44.1874796 C404.167518,43.7866027 403.178048,43.2409965 402.346802,42.5506612 C401.516702,41.8626231 400.828774,41.0769502 400.283018,40.1970885 C399.738408,39.3160781 399.308453,38.3868247 398.993153,37.4116255 C398.678999,36.434129 398.457716,35.4589298 398.333889,34.4825819 C398.208915,33.5050854 398.148148,32.5873184 398.148148,31.725835 C398.148148,29.5813157 398.410707,27.6332145 398.936972,25.8815316 C399.460944,24.1298487 400.255501,22.6331649 401.31491,21.3880342 C402.376612,20.1440522 403.704313,19.1872312 405.299159,18.5164228 C406.895152,17.8467631 408.772049,17.5113589 410.933289,17.5113589 C412.13487,17.5113589 413.177081,17.5825748 414.056482,17.7261554 C414.934736,17.869736 415.662793,18.0328435 416.236067,18.2143293 C416.80934,18.3969638 417.239295,18.5692605 417.525932,18.7312194 C417.812568,18.8943269 417.973085,18.9850698 418.010921,19.0034481 C418.107231,19.081556 418.196661,19.0999343 418.284945,19.0608804 C418.36979,19.0229751 418.412212,18.9563537 418.412212,18.8598676 L418.412212,7.2298416 C418.412212,6.98288302 418.297557,6.82896465 418.069395,6.77153243 C418.031559,6.77153243 417.892827,6.74281631 417.653198,6.68538409 C417.41357,6.62795186 417.142985,6.56018183 416.835711,6.48437129 C416.530729,6.40856075 416.248679,6.34079073 415.991852,6.28220985 C415.733879,6.22477763 415.574509,6.18687236 415.519475,6.16849405 C415.270675,6.11106182 415.139968,5.98126499 415.131942,5.78025219 C415.120477,5.5792394 415.259209,5.44140205 415.545846,5.36329422 C416.291101,5.19214619 417.099416,4.9578227 417.968499,4.66032377 C418.837581,4.36397347 419.713543,4.02856927 420.590651,3.65525979 C421.471198,3.28195032 422.319643,2.87992473 423.141717,2.44918303 C423.963791,2.01844133 424.699874,1.58310505 425.349965,1.14317419 C425.521947,1.02830973 425.698516,0.980066663 425.880816,0.99959362 C426.061971,1.01797193 426.151401,1.1615525 426.151401,1.43033532 L426.151401,39.565334 C426.151401,40.3314799 426.306185,40.948302 426.61002,41.416949 C426.917295,41.885596 427.264698,42.2497163 427.656817,42.5081613 C428.047789,42.7666063 428.430736,42.9492408 428.803364,43.0537675 C429.177138,43.1594428 429.43855,43.2214696 429.591041,43.2409965 L429.591041,43.2409965 Z M418.385842,26.9876763 C418.385842,26.5098402 418.351445,25.9826123 418.284945,25.4082901 C418.217299,24.8339678 418.102645,24.255051 417.939835,23.6703909 C417.778172,23.0868795 417.556888,22.5274896 417.281717,21.9910726 C417.003106,21.4546556 416.654556,20.9756708 416.236067,20.5552669 C415.814138,20.1337143 415.317683,19.7937156 414.74441,19.5352705 C414.171136,19.2768255 413.513019,19.1470287 412.766617,19.1470287 C411.638415,19.1470287 410.673023,19.4341898 409.871587,20.0085121 C409.070151,20.5828344 408.417766,21.3731018 407.923604,22.3781658 C407.426003,23.3832298 407.063694,24.5709282 406.832092,25.9389638 C406.603929,27.3081481 406.490421,28.7864537 406.490421,30.3761777 C406.490421,30.7965816 406.493861,31.3663093 406.503033,32.0842121 C406.512205,32.802115 406.570679,33.5728555 406.676162,34.3964336 C406.780497,35.2200117 406.946746,36.0516304 407.177202,36.8947355 C407.405365,37.7366919 407.73901,38.4925 408.180431,39.1621598 C408.619558,39.8329682 409.183659,40.3831689 409.871587,40.8139106 C410.558368,41.2446523 411.410252,41.4594489 412.421506,41.4594489 C413.720544,41.4594489 414.761608,41.2205308 415.545846,40.741546 C416.330084,40.2637099 416.932021,39.6790498 417.352803,38.9910117 C417.771293,38.3006764 418.049903,37.5701385 418.184049,36.7936547 C418.318195,36.0183197 418.385842,35.3337275 418.385842,34.741027 L418.385842,26.9876763 Z" id="Fill-30" fill="#FEFEFE" mask="url(#mask-2)"></path>
            </g>
        </g>
    </g>
</svg>