<?xml version="1.0" encoding="UTF-8"?>
<!DOCTYPE svg PUBLIC "-//W3C//DTD SVG 1.1//EN" "http://www.w3.org/Graphics/SVG/1.1/DTD/svg11.dtd">
<!-- Creator: CorelDRAW 2019 (64 Bit) -->
<svg xmlns="http://www.w3.org/2000/svg" xml:space="preserve" width="51.5402mm" height="12mm" version="1.1" style="shape-rendering:geometricPrecision; text-rendering:geometricPrecision; image-rendering:optimizeQuality; fill-rule:evenodd; clip-rule:evenodd"
viewBox="0 0 5154020 1200000"
 xmlns:xlink="http://www.w3.org/1999/xlink"
 xmlns:xodm="http://www.corel.com/coreldraw/odm/2003">
 <defs>
  <style type="text/css">
   <![CDATA[
    .fil1 {fill:#FEFEFE}
    .fil0 {fill:#EF7F1A}
    .fil2 {fill:#FEFEFE;fill-rule:nonzero}
   ]]>
  </style>
 </defs>
 <g id="Camada_x0020_1">
  <metadata id="CorelCorpID_0Corel-Layer"/>
  <polygon class="fil0" points="2432620,775490 2166230,188150 1899930,775490 2003130,775490 2166230,395710 2329010,775490 "/>
  <path class="fil1" d="M2632950 775490l-351190 -762180 -99410 0 -32520 0 -99110 0 -351330 762180 155060 0 311780 -691660 311880 691660 154840 0zm-2215450 -218510c0,-19330 -4970,-35040 -14920,-46880 -9950,-11840 -23420,-21670 -40590,-29240 -17110,-7630 -36320,-13730 -57420,-18350 -21360,-4900 -43810,-9460 -67290,-14100 -30840,-6650 -60630,-14300 -88730,-23130 -28260,-9040 -53000,-21230 -74510,-36870 -21470,-15830 -38640,-35810 -51400,-60010 -12610,-24190 -19120,-54670 -19120,-90910 0,-40310 7560,-75140 22280,-105150 14730,-29710 34480,-54470 59860,-74020 25170,-19350 54890,-33920 88750,-43610 34060,-9750 72420,-14710 114880,-14710 42490,0 85320,4130 128210,11980 42910,8200 79920,18240 111030,30630l0 119740c-41550,-15570 -81160,-26920 -119150,-33720 -37870,-7220 -73530,-10860 -106900,-10860 -48370,0 -85240,8260 -111240,25170 -26150,16660 -39050,41690 -39050,74920 0,19630 4130,35400 12820,47870 8570,12700 20040,22940 34830,31130 14650,8140 31480,14720 50630,19360 19060,5240 39310,9660 60920,13790 33770,7160 65960,14790 97010,23620 30770,8980 58030,21390 81860,37520 23850,15770 42630,36450 56650,62160 13950,25740 20890,58260 20890,98160 0,41060 -8140,76380 -23970,106330 -15790,29850 -38270,54530 -67590,74030 -29220,19690 -64760,34200 -106540,43660 -41570,9540 -87350,14160 -136970,14160 -43380,0 -86300,-4070 -128130,-12060 -41790,-8260 -76770,-19620 -104600,-34550l0 -117690c39410,16460 77800,28300 115240,35610 37300,7420 75770,10920 115590,10920 23140,0 45700,-1670 67920,-5390 22240,-3380 42140,-9750 59880,-18370 18010,-8830 32030,-20760 42750,-35670 10810,-14790 16120,-33450 16120,-55470zm238490 -542410l146070 0 0 760920 -146070 0 0 -760920zm687020 353650c57190,77670 103750,146730 139640,206990l3500 0c-4760,-98900 -7080,-171100 -7080,-216160l0 -344540 146070 0 0 760980 -153210 0 -260140 -350420c-45640,-60710 -93030,-131010 -141960,-211060l-3560 0c4840,93230 7220,165710 7220,216680l0 344800 -146030 0 0 -760980 153310 0 262240 353710zm1493640 -353650l0 644270 373130 0 0 116650 -519280 0 0 -760920 146150 0zm871870 556510c17520,-59570 39190,-123930 64990,-192680l137960 -363830 205100 0 0 760920 -146220 0 0 -385620c0,-56560 2380,-122160 7290,-197100l-5480 0c-6860,21870 -14710,46130 -23760,72960 -9240,26860 -18640,53700 -28730,79780l-165160 429980 -94350 0 -165080 -429980c-9890,-26080 -19490,-52920 -28520,-79780 -9320,-26830 -17180,-51090 -24120,-72960l-5270 0c4790,70240 7170,135780 7170,196410l0 386310 -146030 0 0 -760920 203910 0 137840 362140c23050,60290 44700,125110 65110,194370l3350 0zm533180 -556510l146070 0 0 760920 -146070 0 0 -760920zm662970 342790l0 138380 103320 0 0 167250c-13450,2380 -29210,4820 -46960,6370 -17940,1750 -35400,2520 -52150,2520 -89590,0 -159190,-22280 -208050,-67430 -48930,-44860 -73530,-112090 -73880,-201820 0,-46680 7860,-87530 23910,-122530 15830,-35240 37640,-65030 65310,-89160 27490,-24110 60150,-42120 98020,-54530 37780,-12210 78350,-18580 121750,-18580 32250,0 64140,2670 95620,7220 31610,5400 62950,12420 93920,21800l0 -118180c-23060,-8140 -52700,-14570 -88740,-20270 -36380,-5730 -74360,-8400 -114530,-8400 -45210,0 -87840,4760 -127230,14160 -39680,9120 -76060,22650 -109430,40090 -33140,17250 -62730,38350 -88320,63150 -25870,24540 -47880,52170 -65830,82730 -18150,30480 -31880,63790 -41280,99540 -9180,36100 -14100,73400 -14100,112930 0,55730 8770,106820 26570,152810 17680,46040 44320,85660 79920,119030 35530,33430 80190,59370 133660,77660 53500,18520 115880,27550 187380,27550 24110,0 48160,-910 72130,-3360 24400,-2380 47880,-5270 70730,-8760 22930,-3500 43600,-7570 62040,-12360 18510,-4330 33790,-8890 45570,-12960l0 -256470 0 -2180 0 -136200 -249350 0z"/>
  <path class="fil2" d="M137150 1085700l0 -40310 112050 0 0 138350c-14390,5560 -29530,9690 -45250,12330 -15790,2640 -32910,3930 -51340,3930 -21880,0 -41540,-2780 -58990,-8330 -17440,-5560 -32250,-13830 -44420,-24800 -12260,-10980 -21640,-24600 -28140,-40860 -6500,-16330 -9710,-35160 -9710,-56570 0,-21610 3370,-40920 10200,-58000 6830,-17070 16780,-31500 29870,-43360 13160,-11860 29200,-20870 48210,-27100 19090,-6230 40810,-9350 65240,-9350 14480,0 28550,1080 42290,3120 13740,2030 27480,4810 41140,8190l0 48240c-11930,-4600 -25090,-8400 -39410,-11380 -14400,-2980 -28880,-4470 -43520,-4470 -14810,0 -27890,2100 -39170,6370 -11350,4200 -20810,10230 -28460,18020 -7650,7860 -13410,17410 -17360,28800 -3950,11380 -5930,24250 -5930,38480 0,13820 1570,26220 4610,37260 3050,11050 7980,20470 14810,28190 6830,7720 15630,13620 26410,17750 10780,4130 23860,6170 39250,6170 3700,0 6910,-140 9700,-340 2720,-140 5270,-480 7660,-880 2460,-410 4770,-820 6910,-1360 2130,-540 4440,-1150 6830,-1830l0 -66260 -53480 0zm324240 109760l-44350 -83340c-4190,-7990 -10030,-13950 -17520,-18020 -7490,-4000 -16290,-6030 -26410,-6030l-11270 0 0 107390 -59320 0 0 -259430 91820 0c17360,0 33070,1220 47220,3660 14150,2440 26250,6510 36200,12200 9960,5690 17610,13140 23040,22220 5350,9150 8060,20330 8060,33610 0,9480 -1730,17950 -5100,25400 -3370,7390 -8060,13760 -14230,19110 -6090,5350 -13330,9690 -21810,13010 -8390,3320 -17600,5620 -27560,6980 7740,1280 14730,4880 21230,10770 6420,5890 12830,14430 19250,25540l50350 86930 -69600 0zm-14730 -183000c0,-12740 -4930,-21820 -14720,-27370 -9800,-5630 -24520,-8400 -44100,-8400l-26000 0 0 73300 24100 0c9140,0 17450,-810 24930,-2430 7490,-1560 13830,-3930 19170,-7120 5270,-3180 9380,-7110 12260,-11790 2880,-4740 4360,-10090 4360,-16190zm346620 87540c0,16530 -2710,31030 -8060,43560 -5430,12470 -13080,22900 -23120,31240 -10120,8330 -22290,14630 -36780,18900 -14480,4200 -30680,6300 -48700,6300 -20240,0 -37600,-2100 -52080,-6300 -14480,-4270 -26160,-10370 -35210,-18300 -8970,-7920 -15470,-17610 -19500,-28990 -4030,-11390 -6010,-24120 -6010,-38280l0 -172100 59320 0 0 169120c0,8740 910,16460 2720,23230 1890,6710 5100,12470 9620,17150 4610,4740 10370,8260 17280,10630 6910,2370 15550,3590 26000,3590 9790,0 18100,-1010 24840,-3110 6750,-2030 12430,-5350 16870,-9890 4530,-4610 7900,-10440 10120,-17620 2300,-7110 3370,-15790 3370,-25950l0 -167150 59320 0 0 163970zm272170 -81380c0,13490 -2720,25950 -8230,37400 -5430,11450 -13580,21350 -24350,29680 -10780,8330 -24190,14840 -40240,19450 -16040,4600 -34720,6970 -55940,6970l-30120 0 0 83340 -59730 0 0 -259430 92320 0c20400,0 38420,1830 54050,5420 15710,3660 28880,9010 39570,15990 10700,7050 18760,15650 24360,25950 5510,10230 8310,21950 8310,35230zm-62200 3320c0,-6840 -1320,-13070 -3950,-18700 -2720,-5620 -6750,-10430 -12100,-14430 -5340,-3930 -12170,-6970 -20400,-9140 -8150,-2100 -17850,-3120 -29130,-3120l-31100 0 0 95060 33000 0c10280,0 19410,-1150 27230,-3460 7900,-2370 14560,-5690 19910,-10020 5430,-4410 9460,-9630 12340,-15720 2800,-6100 4200,-12880 4200,-20470zm344890 42690c0,23580 -3290,43900 -9960,60980 -6660,17070 -15870,31100 -27470,42070 -11690,10980 -25340,19110 -40980,24390 -15710,5290 -32410,7930 -50270,7930 -41460,0 -72640,-11320 -93540,-34010 -20900,-22700 -31350,-55700 -31350,-98990 0,-23510 3380,-43840 10040,-60910 6660,-17070 15790,-31100 27480,-42070 11680,-10980 25340,-19110 40970,-24400 15630,-5350 32420,-7990 50270,-7990 41470,0 72650,11310 93550,33940 20810,22630 31260,55700 31260,99060zm-62610 2370c0,-30690 -5020,-53590 -14970,-68630 -9960,-15110 -26330,-22630 -49200,-22630 -11360,0 -21070,1960 -29130,5820 -8060,3930 -14640,9620 -19910,17210 -5180,7520 -9050,16810 -11440,27850 -2380,11040 -3620,23710 -3620,38010 0,30690 5020,53590 15060,68700 10040,15110 26410,22630 49040,22630 11430,0 21220,-1960 29290,-5830 8140,-3930 14800,-9680 19910,-17210 5180,-7520 8880,-16800 11350,-27840 2380,-11110 3620,-23780 3620,-38080z"/>
 </g>
</svg>
