<svg width="40" height="38" viewBox="0 0 40 38" fill="none" xmlns="http://www.w3.org/2000/svg">
<mask id="mask0_3_1408" style="mask-type:luminance" maskUnits="userSpaceOnUse" x="8" y="0" width="32" height="31">
<path d="M8.25101 0.848389H39.2469V30.2298H8.25101V0.848389Z" fill="white"/>
</mask>
<g mask="url(#mask0_3_1408)">
<path d="M8.26468 17.7935C8.30569 17.3168 8.50424 16.8949 8.79717 16.5108C9.8257 15.1557 12.1327 14.5349 13.7465 15.5339C14.6969 16.1228 15.4592 16.8805 16.0932 17.7772C16.6205 18.5212 17.0964 19.3025 17.6087 20.0889C17.9667 19.5803 18.328 19.0579 18.6977 18.5415C21.8764 14.1071 25.3669 9.94537 29.4153 6.27596C31.8987 4.02489 34.748 2.35288 37.8141 1.03106C38.3446 0.802171 38.786 0.89151 39.241 1.35125C39.0327 1.54557 38.8257 1.73795 38.62 1.93227C35.9425 4.46506 33.3224 7.05654 30.9444 9.87495C29.5832 11.487 28.3217 13.1831 27.023 14.8473C24.4087 18.1998 22.4525 21.9702 20.2301 25.5725C19.3728 26.9634 18.5226 28.3596 17.664 29.7499C17.3223 30.3016 16.8731 30.2944 16.5307 29.7297C15.4195 27.8972 14.5426 25.9507 13.7152 23.9774C13.0233 22.3302 12.2467 20.7241 11.2604 19.2268C10.7722 18.4873 10.1974 17.8783 9.2522 17.7974C8.93322 17.7707 8.60904 17.7935 8.26468 17.7935Z" fill="#0097B2"/>
</g>
<mask id="mask1_3_1408" style="mask-type:luminance" maskUnits="userSpaceOnUse" x="0" y="3" width="35" height="34">
<path d="M0.87619 3.35254H34.4147V36.8624H0.87619V3.35254Z" fill="white"/>
</mask>
<g mask="url(#mask1_3_1408)">
<path d="M32.3082 12.0582L29.7037 14.6673C30.4562 16.3314 30.8735 18.1782 30.8735 20.1234C30.8735 27.4492 24.9464 33.3867 17.6334 33.3867C10.3198 33.3867 4.39272 27.4492 4.39272 20.1234C4.39272 12.7977 10.3198 6.86022 17.6334 6.86022C19.462 6.86022 21.202 7.23127 22.7852 7.90229L25.4086 5.27364C23.0859 4.05028 20.4397 3.3584 17.6334 3.3584C8.39032 3.3584 0.897675 10.8642 0.897675 20.1234C0.897675 29.3827 8.39032 36.8878 17.6334 36.8878C26.8759 36.8878 34.3692 29.3821 34.3692 20.1228C34.3692 17.2 33.6218 14.4508 32.3082 12.0582Z" fill="#0097B2"/>
</g>
</svg>
